<?xml version="1.0" standalone="no"?>
<!DOCTYPE svg PUBLIC "-//W3C//DTD SVG 1.1//EN" "http://www.w3.org/Graphics/SVG/1.1/DTD/svg11.dtd" >
<svg xmlns="http://www.w3.org/2000/svg">
<metadata></metadata>
<defs>
<font id="finna_ikonit_18012003regular" horiz-adv-x="4505" >
<font-face units-per-em="2048" ascent="1638" descent="-410" />
<missing-glyph horiz-adv-x="1228" />
<glyph horiz-adv-x="2048" />
<glyph horiz-adv-x="2048" />
<glyph unicode="&#xd;" horiz-adv-x="2048" />
<glyph unicode=" "  horiz-adv-x="1228" />
<glyph unicode="&#x09;" horiz-adv-x="1228" />
<glyph unicode="&#xa0;" horiz-adv-x="1228" />
<glyph unicode="!" d="M1487 342l477 477l-477 477l289 289l477 -477l477 477l289 -289l-477 -477l477 -477l-289 -289l-477 477l-477 -477z" />
<glyph unicode="#" horiz-adv-x="6144" d="M2130 168l653 651l-653 651l291 291l651 -653l651 653l291 -291l-653 -651l653 -651l-291 -291l-651 653l-651 -653z" />
<glyph unicode="0" horiz-adv-x="5310" d="M614 1128q0 266 100 507.5t287 428.5t428.5 287t507.5 100t507.5 -100t428.5 -287t287 -428.5t100 -507.5q0 -375 -196 -694l821 -821l-432 -432l-821 821q-321 -197 -695 -197q-265 0 -506.5 100t-429.5 288q-187 187 -287 428t-100 507zM1022 1128q0 -185 69 -351.5 t199 -295.5q128 -130 295.5 -199t351.5 -69q185 0 352.5 68.5t297.5 197.5q129 131 197.5 298t68.5 351q0 185 -68.5 352t-197.5 296q-130 130 -297.5 199t-352.5 69t-351.5 -69t-295.5 -199q-130 -129 -199 -296t-69 -352zM3469 1640v408h410v410h410v-410h407v-408h-407 v-409h-410v409h-410z" />
<glyph unicode="1" d="M614 410l469 -469l609 606l288 -289l-606 -608l469 -469h-1229v1229zM614 1229v1229h1229l-469 -469l606 -609l-288 -288l-609 606zM2525 258l289 289l608 -606l469 469v-1229h-1229l469 469zM2525 1380l606 609l-469 469h1229v-1229l-469 469l-608 -606z" />
<glyph unicode="2" d="M614 -819h2868v1812l-410 -409v-994h-2048v2048h993l410 410h-1813v-2867zM1626 627l1301 1302l-529 529h1493v-1493l-528 530l-1303 -1302z" />
<glyph unicode="3" d="M614 410h1229v-1024h410v204h409v-409h-2048v1229zM614 614v410h205v-205h205v-205h-410zM614 1229v1229h1229v-205h205v205h410v-205h-205v-205h-410v-819h-1229zM819 205v-819h819v819h-819zM819 1434h819v819h-819v-819zM1024 0h410v-410h-410v410zM1024 819v205h205 v-205h-205zM1024 1638h410v410h-410v-410zM1229 614v205h205v205h204v-410h-409zM1843 819v205h205v-205h-205zM2048 -205v410h205v205h-205v409h205v-205h205v205h204v-614h-204v-205h-205v-205h-205zM2048 1024v205h205v-205h-205zM2048 1434v204h410v-409h-205v205h-205z M2253 819v205h205v-205h-205zM2253 1843v205h205v-205h-205zM2458 1024v205h204v-205h-204zM2458 1638v205h204v615h1229v-1229h-409v-205h-205v205h-615v409h-204zM2662 0v205h410v205h-205v409h205v-205h205v205h205v-409h204v-205h205v-410h-205v205h-204v205h-205v-615 h-205v410h-410zM2662 -205h205v-205h-205v205zM2662 819v205h205v-205h-205zM2867 -410h205v-204h205v204h205v-409h-615v409zM2867 1434h819v819h-819v-819zM3072 819v205h205v-205h-205zM3072 1638v410h410v-410h-410zM3482 -205h204v-205h-204v205zM3482 819v205h204 v-205h-204zM3686 -410h205v-409h-205v409zM3686 614v205h205v-205h-205z" />
<glyph unicode="4" d="M614 819q0 125 48.5 239t131 196.5t196.5 131t239 48.5q122 0 231.5 -45.5t194.5 -126.5l1016 507q-9 56 -9 74q0 125 48.5 239t131 196.5t196.5 131t239 48.5t239 -48.5t196 -131t130.5 -196.5t48.5 -239q0 -167 -82 -308.5t-223.5 -223.5t-308.5 -82 q-122 0 -231.5 45.5t-194.5 126.5l-1016 -508q8 -50 8 -74t-8 -74l1016 -507q85 81 194.5 126.5t231.5 45.5q125 0 239 -48.5t196 -131t130.5 -196.5t48.5 -239q0 -167 -82 -308.5t-223.5 -223.5t-308.5 -82q-125 0 -239 48.5t-196.5 130.5t-131 196t-48.5 239q0 18 9 74 l-1016 508q-85 -81 -194.5 -126.5t-231.5 -45.5q-125 0 -239 48.5t-196.5 130.5t-131 196t-48.5 239z" />
<glyph unicode="5" horiz-adv-x="4384" d="M614 381l371 215q-22 113 -22 223t22 223l-371 215q116 412 410 709l371 -213q172 146 387 223v428q214 54 409 54q196 0 410 -54v-428q213 -76 389 -223l371 213q293 -296 409 -709l-370 -215q20 -120 20 -223q0 -102 -20 -225l370 -213q-116 -413 -409 -709l-371 213 q-176 -147 -389 -223v-428q-210 -53 -410 -53q-199 0 -409 53v428q-215 77 -387 223l-371 -213q-294 297 -410 709zM1577 819q0 -167 82.5 -308.5t224 -223.5t307.5 -82q125 0 239 48.5t196.5 130.5t131 196t48.5 239t-48.5 239t-131 196.5t-196.5 131t-239 48.5 t-238.5 -48.5t-195.5 -131t-131 -196.5t-49 -239z" />
<glyph unicode="6" horiz-adv-x="3891" d="M614 -819h1844v2457h-1844v-2457zM819 -614v2048h1434v-2048h-1434zM1024 0h1024v-205h-1024v205zM1024 205h1024v205h-1024v-205zM1024 614v205h1024v-205h-1024zM1024 1843v205h1843v-2458h-205v2253h-1638zM1229 1024v205h819v-205h-819zM1434 2253v205h1843v-2458 h-205v2253h-1638z" />
<glyph unicode="7" horiz-adv-x="5306" d="M2800 705q58 145 103 305.5t56 281.5q38 341 9 592q-28 230 -148 430q166 144 430 144q121 0 222 -32t174 -88t127 -135t85.5 -170.5t44.5 -197.5q26 -223 -8 -551q-16 -155 -96 -406t-129 -329q-38 -59 -40.5 -160.5t30 -188t86.5 -104.5q89 -30 194 -48.5t181 -25.5 t159.5 -24t141 -42.5t112 -82t87 -142.5t52 -224t19.5 -326h-1016v274q0 133 -15 245t-38 196t-64.5 153.5t-78.5 116.5t-98 86t-105 61t-116.5 42t-116 29t-119.5 22q-14 3 -28 8.5t-28 7.5q11 155 -39 227q-9 16 -30 56z" />
<glyph unicode="8" horiz-adv-x="4915" d="M614 614l1844 1844l1843 -1844h-410v-1433h-1024v1024h-819v-1024h-1024v1433h-410z" />
<glyph unicode="9" d="M614 -205v2663h2048v-1024l-204 -205v1024h-1297l1092 -410v-2662zM2458 -205v615l204 -205v-410h-204zM2458 819l819 819v-409h614v-819h-614v-410z" />
<glyph unicode="?" d="M614 819q0 -223 59 -435.5t164.5 -392t257 -330.5t331 -256.5t392 -164.5t435.5 -59t435.5 59t392 164.5t330.5 256.5t256.5 330.5t164.5 392t59 435.5t-59 435.5t-164.5 392t-256.5 331t-330.5 257t-392 164.5t-435.5 59t-435.5 -59t-392 -164.5t-331 -257t-257 -331 t-164.5 -392t-59 -435.5zM1024 819q0 250 97.5 477.5t262 392t392 262t477.5 97.5t477.5 -97.5t392 -262t262 -392t97.5 -477.5t-97.5 -477.5t-262 -392t-392 -262t-477.5 -97.5t-477.5 97.5t-392 262t-262 392t-97.5 477.5zM1638 819q0 125 48.5 239t131 196.5t196.5 131 t239 48.5t239 -48.5t196 -131t130.5 -196.5t48.5 -239q0 -167 -82 -308.5t-223.5 -223.5t-308.5 -82q-125 0 -239 48.5t-196.5 130.5t-131 196t-48.5 239z" />
<glyph unicode="A" d="M614 -952v2887l1639 656l1638 -676v-2867l-1659 655zM819 -645l1413 573l1454 -573v2417l-1433 593l-1434 -573v-2437zM1024 -10l1024 409v-245l-1024 -410v246zM1024 154v245l1024 410v-246zM1024 563v246l1024 410v-246zM1024 973v246l1024 409v-246zM1024 1382v246 l1024 410v-246zM2458 154v245l1024 -409v-246zM2458 563v246l1024 -410v-245zM2458 973v1065l1024 -410v-1065zM2662 1137l615 -246v573l-615 246v-573z" />
<glyph unicode="B" horiz-adv-x="4096" d="M614 1448q0 141 70 261t190 189.5t261 69.5q154 0 279.5 -81t189.5 -216q34 37 34 76v915h820v-915q0 -40 34 -80q64 134 189.5 214.5t279.5 80.5q141 0 261 -71t190 -192.5t70 -262.5q0 -145 -73.5 -272t-193.5 -195q28 -60 45 -142t17 -157q0 -99 -28 -212.5 t-75.5 -223t-109 -223t-129 -215.5t-135.5 -196t-129.5 -169.5t-109 -132t-75.5 -86.5l-28 -31h-820q-17 18 -46.5 51t-114.5 136t-162.5 206.5t-172 250.5t-162.5 282t-114.5 286.5t-46.5 276.5q0 77 17.5 172t44.5 155q-121 67 -194 187.5t-73 263.5zM819 1448 q0 -90 47 -165t125 -114q24 28 52.5 57t52 51.5t59.5 51.5t56.5 45t61 45t55.5 39.5t58 40t52 35.5q-30 101 -113.5 165t-189.5 64q-131 0 -223.5 -92.5t-92.5 -222.5zM2658 1534q9 -6 52 -35.5t58 -40t55.5 -39.5t61 -45t56.5 -45t59.5 -51.5t52 -51.5t52.5 -57 q78 39 125 114t47 165q0 130 -92.5 222.5t-223.5 92.5q-106 0 -189.5 -64t-113.5 -165z" />
<glyph unicode="C" d="M614 0v205h1024v205h-1024v204h1024v205h-1024v205h1024v614l1434 410v-1024h819v-205h-819v-205h819v-204h-819v-103q0 -43 -18 -102h837v-205h-2048v-111h-2q0 -48 -16 -94h2066v-205h-3277v205h633q-18 50 -18 103q0 52 18 102h-633zM614 -614h3277v-205h-3277v205z M1843 205h633q-18 49 -18 102t18 103h-633v-205zM1843 614h1024v205h-1024v-205zM1843 1024h1024v555l-1024 -291v-264z" />
<glyph unicode="D" horiz-adv-x="4716" d="M614 205h1135l545 -1024l1808 964l-579 1084l-246 -131v950h-2663v-1843zM819 410v1433h2253v-854l-1085 -579h-1168zM1024 819v205h1229v-205h-1229zM1024 1229h1638v409h-1638v-409zM1993 180l1446 772l385 -723l-1446 -772zM2269 96l1086 578l192 -361l-1083 -577z " />
<glyph unicode="E" d="M614 225v1229h635l799 614v-2457l-819 614h-615zM2396 328q144 48 246 191t102 321q0 164 -103 304t-245 187l82 205q213 -76 342 -269.5t129 -426.5q0 -245 -127.5 -432.5t-343.5 -264.5zM2601 1782l102 184q204 -91 362 -262t246.5 -396.5t88.5 -467.5 q0 -378 -192 -682.5t-505 -444.5l-82 164q253 126 413.5 387t160.5 576q0 304 -164.5 560.5t-429.5 381.5zM2847 -573q374 187 596.5 564.5t222.5 848.5q0 303 -102 577t-287 483t-430 332l82 185q287 -144 503 -379.5t337.5 -545.5t121.5 -652q0 -265 -69.5 -511.5 t-196.5 -449.5t-304 -366t-392 -271z" />
<glyph unicode="F" horiz-adv-x="4114" d="M614 827q1 302 70.5 577.5t216 509.5t354.5 367q119 76 268 126.5t298 50.5q231 0 409 -129q68 -49 113.5 -116t65.5 -134.5t31.5 -138t17.5 -133.5t15.5 -114.5t33 -87t63.5 -46.5q45 -9 58 -9q43 0 75.5 22t53 57t40 78t43.5 87t55.5 81.5t84.5 63.5t123 31h35 q205 0 296 -176q67 -130 67 -354q0 -81 -9 -174q-12 -129 -41.5 -270.5t-80 -297t-117.5 -309t-159 -304t-199 -284t-242 -248t-284.5 -197t-330.5 -129t-375 -46.5q-41 0 -64 2q-147 6 -276.5 65.5t-228 158t-179.5 229.5t-136.5 278t-93 306.5t-54.5 311.5t-17 295z M819 825q0 -111 11.5 -228.5t34 -239.5t59 -238.5t84 -223.5t110.5 -197.5t135.5 -158.5t163.5 -107.5t191 -43.5q18 -2 55 -2q177 0 341.5 45t298.5 123.5t254.5 186.5t214.5 233t174.5 264.5t138 278.5t101 278.5t68.5 260.5t35 228q7 78 8 144v18q0 54 -5 94 q-6 46 -13 81t-18 58.5t-17.5 35t-13.5 20.5q-30 30 -92 30h-21q-48 -3 -69.5 -25t-59.5 -108q-15 -31 -23.5 -48t-28.5 -51.5t-38 -55.5t-47.5 -49t-60.5 -43.5t-73 -27t-89 -11.5q-44 0 -109 14q-47 12 -85 35.5t-63.5 49.5t-45.5 65t-31 69t-20.5 76t-12.5 71.5t-8 69.5 q-16 149 -44 232t-100 135q-125 90 -288 90q-107 0 -228 -38.5t-227 -105.5q-251 -162 -398.5 -506.5t-148.5 -777.5zM1032 905q0 83 58 141t141 58q82 0 140.5 -58t58.5 -141t-58.5 -140.5t-140.5 -57.5q-83 0 -141 57.5t-58 140.5zM1159 283q0 83 58 140.5t141 57.5 q82 0 140 -57.5t58 -140.5q0 -82 -58 -140.5t-140 -58.5q-83 0 -141 58.5t-58 140.5zM1376 1573q0 127 91 217t219 90t217.5 -90t89.5 -217q0 -128 -90 -218.5t-217 -90.5q-128 0 -219 91t-91 218zM1556 -172q0 83 58.5 141t140.5 58q83 0 141 -58t58 -141t-58 -141 t-141 -58q-82 0 -140.5 58t-58.5 141zM2107 98q0 82 59 140.5t142 58.5q82 0 140.5 -58.5t58.5 -140.5q0 -83 -58.5 -141.5t-140.5 -58.5q-83 0 -142 58.5t-59 141.5zM2492 610q0 83 58.5 141t140.5 58q83 0 141 -58t58 -141t-58 -140.5t-141 -57.5q-82 0 -140.5 57.5 t-58.5 140.5z" />
<glyph unicode="G" horiz-adv-x="4984" d="M614 1208l670 777l1217 524l1204 -522l665 -779l-561 -288v-1133l-1317 -657l-1314 657v1133zM1380 -86l1012 -508v1587l-418 -485l-594 307v-901zM1522 1866l970 -486l975 488l-968 422zM2595 -594l1012 508v901l-594 -307l-418 485v-1587z" />
<glyph unicode="H" d="M614 819q0 223 59 435.5t164.5 392t257 331t331 257t392 164.5t435.5 59t435.5 -59t392 -164.5t330.5 -257t256.5 -331t164.5 -392t59 -435.5t-59 -435.5t-164.5 -392t-256.5 -330.5t-330.5 -256.5t-392 -164.5t-435.5 -59t-435.5 59t-392 164.5t-331 256.5t-257 330.5 t-164.5 392t-59 435.5zM2048 -205h410v1229h-410v-1229zM2048 1434h410v409h-410v-409z" />
<glyph unicode="I" d="M614 1133q0 266 100.5 507.5t289.5 430.5q187 187 428 287t507 100q267 0 508.5 -99.5t429.5 -287.5q188 -190 289 -431.5t101 -506.5q0 -378 -199 -697l823 -823l-432 -432l-823 823q-321 -197 -697 -197q-265 0 -506 100t-429 288q-189 187 -289.5 429.5t-100.5 508.5z M1022 1133q0 -184 69.5 -352.5t198.5 -297.5q130 -130 297.5 -199t351.5 -69q185 0 353.5 69t296.5 199q130 128 199 296.5t69 353.5t-69 352t-199 297q-129 129 -297.5 198.5t-352.5 69.5q-183 0 -350.5 -69.5t-296.5 -198.5q-131 -131 -200.5 -298t-69.5 -351z" />
<glyph unicode="J" horiz-adv-x="4507" d="M1438 614v410h614v616h410v-616h614v-410h-614v-616h-410v616h-614z" />
<glyph unicode="K" d="M644 1118q-30 112 -30 224t30 224q60 224 226 392q166 166 390 225q112 30 224 29l224 -29q224 -59 391 -225l154 -154l153 154q167 166 391 225q112 30 224 29l224 -29q224 -59 390 -225q167 -167 227 -391q30 -112 30 -224q0 -113 -30 -225q-60 -224 -227 -391 l-1382 -1384l-1383 1384q-166 167 -226 391z" />
<glyph unicode="L" d="M1434 614v410h614v614h410v-614h614v-410h-614v-614h-410v614h-614z" />
<glyph unicode="M" d="M1434 614v410h1638v-410h-1638z" />
<glyph unicode="N" horiz-adv-x="4427" d="M614 -819v3277h1616l815 -822v-368q220 218 512 450l256 -317q-225 -182 -409 -356t-359 -377v-1487h-2431zM819 -614h2048v1063q-214 -276 -442 -637l-160 -252l-178 239q-73 99 -158.5 194t-153.5 159t-128.5 115.5t-91.5 74.5t-35 25l235 338l11 -8q10 -8 25 -19.5 t37.5 -29t49.5 -40t58 -49t66.5 -59.5t72 -68t77.5 -77.5t80 -86.5q309 464 635 815v351h-819v819h-1229v-2867zM2253 1638h508l-508 535v-535z" />
<glyph unicode="O" d="M614 1016q0 168 59 328t164.5 296t257 250t331 194t392 124.5t435.5 44.5t435.5 -44.5t392 -124.5t330.5 -194t256.5 -250t164.5 -296t59 -328t-59 -328.5t-164.5 -296.5t-256.5 -250t-330.5 -193.5t-392 -124t-435.5 -44.5q-176 0 -355 28q-103 -83 -250.5 -156.5 t-284 -120t-258.5 -81t-195 -49.5l-74 -14q11 9 29.5 26.5t70.5 79.5t98 133.5t99.5 187.5t87.5 242q-282 172 -444.5 423.5t-162.5 537.5z" />
<glyph unicode="P" d="M614 -410v2458h3277v-2458h-3277zM819 -205h2867v1620l-1433 -921l-1434 907v-1606zM819 1645l1434 -910l1433 924v184h-2867v-198z" />
<glyph unicode="Q" horiz-adv-x="4710" d="M614 0v2458h1321q-216 -177 -366 -410h-545v-1638h2253v372l409 359v-1141h-3072zM1642 819q0 211 34.5 400t93.5 334.5t141 271.5t173.5 216.5t193.5 164t200 120t194 77.5t173.5 44t140.5 13v551l1110 -969l-1110 -971v565q-191 0 -359 -28t-291 -75t-227 -108.5 t-173.5 -129t-124.5 -135.5t-85.5 -129.5t-50.5 -108.5t-27 -75z" />
<glyph unicode="R" horiz-adv-x="3481" d="M614 147l1127 1754l1126 -1754h-2253z" />
<glyph unicode="S" horiz-adv-x="2981" d="M614 -307v2253l1753 -1127z" />
<glyph unicode="T" horiz-adv-x="3481" d="M614 1491h2253l-1126 -1753z" />
<glyph unicode="U" horiz-adv-x="2981" d="M614 819l1753 1127v-2253z" />
<glyph unicode="V" d="M614 1188l727 -834l-100 -1093l1010 432l1014 -432l-103 1093l729 834l-1077 237l-561 953l-561 -963z" />
<glyph unicode="W" horiz-adv-x="4708" d="M614 408q6 -3 52.5 -38t138.5 -113t195.5 -175.5t233.5 -242t241 -294.5l270 -364l242 385q225 358 437.5 654.5t405.5 531t405 451t410.5 393t448.5 378.5l-391 484q-295 -239 -530 -453t-485 -477.5t-494.5 -577t-499.5 -694.5q-104 116 -216 226.5t-194 182.5 t-158.5 133.5t-109.5 86t-47 33.5z" />
<glyph unicode="X" d="M614 819q0 223 59 435.5t164.5 392t257 331t331 257t392 164.5t435.5 59t435.5 -59t392 -164.5t330.5 -257t256.5 -331t164.5 -392t59 -435.5t-59 -435.5t-164.5 -392t-256.5 -330.5t-330.5 -256.5t-392 -164.5t-435.5 -59t-435.5 59t-392 164.5t-331 256.5t-257 330.5 t-164.5 392t-59 435.5z" />
<glyph unicode="Y" d="M614 -102h3277v-615h-3277v615zM614 512v614h3277v-614h-3277zM614 1741v614h3277v-614h-3277z" />
<glyph unicode="Z" d="M614 1331v205h820v819h1638v-819h819v-205h-2l-196 -2048h-2880l-192 2048h-7zM846 1126l37 -409h755v409h-792zM903 512l39 -410h696v410h-735zM961 -102l38 -410h639v410h-677zM1638 1536h1229v410h-1229v-410zM1843 -102v-410h819v410h-819zM1843 102h819v410h-819 v-410zM1843 717h819v409h-819v-409zM2867 -102v-410h639l39 410h-678zM2867 102h699l38 410h-737v-410zM2867 717h758l39 409h-797v-409z" />
<glyph unicode="a" horiz-adv-x="4096" d="M614 -614v2867h205v205h2253v-2663h-2253v-409h-205zM819 -614h2458v2662h205v-2867h-2663v205z" />
<glyph unicode="b" d="M614 -819v3277h3277v-3277h-3277zM819 -123v-491h471l594 327l-307 553zM819 123l635 307l-491 451q-6 -11 -27 -52.5t-29 -59t-25.5 -56t-25.5 -64.5t-18.5 -61.5t-14.5 -69t-4 -67.5v-328zM1106 1044l594 -512l266 164l-82 144l553 286l184 -348l-122 -61l266 -512 l921 532v1516h-184q0 -47 -13 -101.5t-44 -118.5t-76.5 -124.5t-117 -117.5t-159.5 -100t-209.5 -68.5t-261.5 -25.5q-1113 0 -1515 -553zM1720 -614h389l-102 163zM1802 348l287 -532l553 286l-287 533l-266 -143l-21 20zM2191 -369l144 -245h696l-307 553zM2867 20 l389 -634h430v1126z" />
<glyph unicode="c" d="M614 -205v1639h983q-81 49 -122 97t-41 107v410q0 83 97.5 159t262 131t392 87.5t476.5 32.5t476.5 -32.5t392.5 -87.5t262.5 -131t97.5 -159v-410q0 -100 -136.5 -187t-368.5 -144t-519 -78v-205q287 21 519 78t368.5 144.5t136.5 187.5v-615q0 -100 -136.5 -187 t-368.5 -144t-519 -78v-205q287 21 519 78t368.5 144t136.5 187v-614q0 -83 -97.5 -159t-262.5 -131t-392.5 -87.5t-476.5 -32.5q-336 0 -614 62v-266h410v-205h-1434v205h410v409h-820zM819 0h1843v1229h-1843v-1229zM1024 205h1434v819h-1434v-819z" />
<glyph unicode="d" horiz-adv-x="3686" d="M614 -819v3277h1639l819 -820v-2457h-2458zM819 -614h2048v2048h-819v819h-1229v-2867zM1024 0v-205h1638v205h-1638zM1024 205h1638v205h-1638v-205zM1024 614h1638v205h-1638v-205zM1024 1024h1638v205h-1638v-205zM1024 1434h819v204h-819v-204zM2253 1638h532 l-532 533v-533z" />
<glyph unicode="e" d="M614 -819v2662h697l942 737l942 -737h696v-2662h-3277zM819 -614h2867v2252h-2867v-2252zM1024 -410l614 1024l410 -409l819 1024l615 -819v-820h-2458zM1024 1126q0 123 92 215.5t215 92.5t215 -92.5t92 -215.5t-92 -215t-215 -92t-215 92t-92 215zM1659 1843h1188 l-594 471z" />
<glyph unicode="f" d="M614 -410v2458h410v205h-410v205h3277v-205h-205v-205h205v-2458h-205v-204h205v-205h-3277v205h410v204h-410zM1229 -410v-204h205v204h-205zM1229 2048h205v205h-205v-205zM1638 -410v-204h205v204h-205zM1638 2048h205v205h-205v-205zM1843 184l1024 635l-1024 615 v-1250zM2048 -410v-204h205v204h-205zM2048 2048h205v205h-205v-205zM2458 -410v-204h204v204h-204zM2458 2048h204v205h-204v-205zM2867 -410v-204h205v204h-205zM2867 2048h205v205h-205v-205zM3277 -410v-204h205v204h-205zM3277 2048h205v205h-205v-205z" />
<glyph unicode="g" horiz-adv-x="3686" d="M614 -819v3277h1643l815 -822v-2455h-381l68 -168l-191 -76l-96 244h-231l-97 -244l-190 76l67 168h-1407zM819 -614h1284l99 247q-69 41 -111.5 111.5t-42.5 153.5q0 127 90.5 217t216.5 90q127 0 217 -89.5t90 -217.5q0 -83 -41 -154t-110 -111l98 -247h258v2048h-819 v819h-1229v-2867zM1024 205h819v205h-819v-205zM1024 614h1638v205h-1638v-205zM1024 1024h1638v205h-1638v-205zM1024 1434h819v204h-819v-204zM2253 1638h534l-534 533v-533zM2322 -614h68l-35 82z" />
<glyph unicode="h" d="M614 -819q0 91 14.5 166.5t38.5 134t65 107.5t84.5 84t107.5 67.5t123 54.5t142 47.5t154 45t169 48t178 54.5q64 20 100 90q34 64 33 143v13q-3 86 -47 155q-59 88 -148 344.5t-108 431.5q-22 201 -22 366q0 126 13 232q14 120 49.5 222.5t97 190t145 149.5t198 96.5 t252.5 34.5q171 0 306 -52.5t224 -148t141.5 -218.5t71.5 -274q12 -103 12 -231q0 -164 -20 -367q-19 -174 -108 -430t-148 -346q-44 -69 -47 -155v-13q0 -79 33 -143q36 -70 98 -90q80 -26 178 -54.5t169 -48t153.5 -45t142 -47.5t123 -54.5t107 -67.5t84.5 -84t65 -107.5 t38.5 -134t14.5 -166.5h-3277z" />
<glyph unicode="i" horiz-adv-x="6144" d="M614 819q0 334 88.5 653t246.5 588.5t385 496.5t496.5 385t588.5 246.5t653 88.5t653 -88.5t588.5 -246.5t496.5 -385t385 -496.5t246.5 -588.5t88.5 -653t-88.5 -653t-246.5 -588t-385 -496t-496.5 -385.5t-588.5 -246.5t-653 -88t-653 88t-588.5 246.5t-496.5 385.5 t-385 496t-246.5 588t-88.5 653zM2867 -205h410v1434h-410v-1434zM2867 1638h410v410h-410v-410z" />
<glyph unicode="j" d="M614 205h541l-147 -1024h2490l-147 1024h540v1024h-3277v-1024zM614 1434h3277l-409 409h-205v615h-2048v-615h-205zM1245 -614l174 1228h1667l174 -1228h-2015z" />
<glyph unicode="k" horiz-adv-x="6144" d="M2048 614v410h819v819h410v-819h819v-410h-819v-819h-410v819h-819z" />
<glyph unicode="l" d="M614 -819l228 1294l1990 1983h695l364 -338v-699l-1984 -1996zM915 -266l144 -80l92 -158l649 121l43 51v365l-401 446l1788 1774h-314l-1884 -1878z" />
<glyph unicode="m" horiz-adv-x="6144" d="M2048 614v410h819v819h410v-819h819v-410h-819v-819h-410v819h-819z" />
<glyph unicode="n" horiz-adv-x="5529" d="M614 807l1442 1651h2654v-205h205v-2867h-205v-205h-2654zM2517 342l289 -289l475 477l475 -477l289 289l-475 477l477 477l-291 289l-475 -477l-475 477l-289 -289l475 -477z" />
<glyph unicode="o" d="M614 1133q0 266 100.5 507.5t289.5 430.5q187 187 428 287t507 100q267 0 508.5 -99.5t429.5 -287.5q188 -190 289 -431.5t101 -506.5q0 -378 -199 -697l823 -823l-432 -432l-823 823q-321 -197 -697 -197q-265 0 -506 100t-429 288q-189 187 -289.5 429.5t-100.5 508.5z M1022 1133q0 -184 69.5 -352.5t198.5 -297.5q130 -130 297.5 -199t351.5 -69q185 0 353.5 69t296.5 199q130 128 199 296.5t69 353.5t-69 352t-199 297q-129 129 -297.5 198.5t-352.5 69.5q-183 0 -350.5 -69.5t-296.5 -198.5q-131 -131 -200.5 -298t-69.5 -351z" />
<glyph unicode="p" d="M614 -819q0 71 11 130t30 104.5t50.5 83.5t65.5 65t83 52t95 42t110 36t119 34t130.5 36.5t137.5 42.5q48 16 76 70q26 50 26 111v10q-3 68 -37 121q-46 70 -115 268t-81 332q-17 163 -17 292q0 93 9 169q23 177 105 305.5t226 187.5v785h1438l815 -822v-2046h-942 q98 -62 148.5 -158t50.5 -251h-2534zM1843 1714q6 0 19 1t20 1q125 0 224.5 -36.5t167.5 -103t110 -153t61 -194.5h1037v-205h-1018q0 -91 -6 -205h1024v-205h-1051q-20 -95 -57 -204h1108v-205h-1186q-36 -74 -45 -86q-34 -53 -37 -121v-10q0 -61 26 -111q28 -54 76 -70 q35 -10 41 -12h1329v1639h-819v819h-1024v-539zM3072 1638h535l-535 535v-535z" />
<glyph unicode="q" horiz-adv-x="4096" d="M614 -819h2868v2048h-428q-17 -131 -56 -205h279v-199l-1229 -784l-1229 790v193h1182q18 30 27 82q8 46 8 80v7v36h-1422v-2048zM819 588l1229 -789l1229 785v-1198h-2458v1202zM1833 1436h420q-3 -131 -19 -246.5t-40.5 -200t-55.5 -157t-65 -121t-67.5 -87 t-63.5 -60.5t-53 -36t-37 -19l-13 -5q201 0 363.5 41t267 103.5t182.5 153.5t117.5 173t63 180.5t28.5 158t6 122.5h410l-721 1018z" />
<glyph unicode="r" horiz-adv-x="6144" d="M1946 147l1126 1754l1126 -1754h-2252z" />
<glyph unicode="s" horiz-adv-x="6144" d="M2400 -307v2253l1753 -1127z" />
<glyph unicode="t" horiz-adv-x="6144" d="M1946 1491h2252l-1126 -1753z" />
<glyph unicode="u" horiz-adv-x="6144" d="M1991 819l1753 1127v-2253z" />
<glyph unicode="v" d="M614 -614h3277v2867h-3277v-2867zM819 -410v2458h2867v-2458h-2867zM1024 217q0 -85 60 -145t145 -60t145 60t60 145t-60 145t-145 60t-145 -60t-60 -145zM1024 831q0 -85 60 -144.5t145 -59.5t145 59.5t60 144.5t-60 145t-145 60t-145 -60t-60 -145zM1024 1446 q0 -85 60 -145t145 -60t145 60t60 145t-60 145t-145 60t-145 -60t-60 -145zM1638 0h1844v410h-1844v-410zM1638 614h1844v410h-1844v-410zM1638 1229h1844v409h-1844v-409z" />
<glyph unicode="w" d="M614 -410q0 112 55.5 206t149.5 147v876h1229v447q-181 66 -295.5 223.5t-114.5 353.5q0 125 48.5 239t131 196.5t196.5 131t239 48.5t239 -48.5t196 -131t130.5 -196.5t48.5 -239q0 -197 -114 -354t-295 -223v-447h1228v-876q94 -53 149.5 -147t55.5 -206 q0 -169 -120 -289t-289 -120t-289.5 120t-120.5 289q0 112 55.5 206t149.5 147v467h-819v-467q94 -53 149 -147t55 -206q0 -169 -120 -289t-289 -120t-289.5 120t-120.5 289q0 112 55.5 206t149.5 147v467h-819v-467q94 -53 149.5 -147t55.5 -206q0 -169 -120.5 -289 t-289.5 -120t-289.5 120t-120.5 289z" />
<glyph unicode="x" horiz-adv-x="3686" d="M614 20l799 799l-799 799l430 430l799 -799l799 799l430 -430l-799 -799l799 -799l-430 -430l-799 799l-799 -799z" />
<glyph unicode="y" d="M614 141l961 -960h1356l960 960v1356l-960 961h-1356l-961 -961v-1356zM1016 643v33h162v-25q0 -30 6 -51q3 -23 16 -39q14 -18 33 -26q31 -9 53 -9q37 0 68 25q30 24 30 76q0 19 -8 47q-7 21 -24 35q-21 17 -45 28q-26 15 -68 27q-40 13 -94 41q-39 20 -68 49 q-29 36 -39 68q-12 37 -12 88q0 119 68 178q65 59 184 59q54 0 100 -12q34 -7 78 -37q36 -28 53 -70q19 -43 19 -98v-22h-156q0 57 -22 88q-17 32 -68 32q-21 0 -45 -8q-19 -10 -29 -22q-11 -15 -14 -29q-4 -24 -4 -35q0 -42 16 -63q17 -26 68 -47l125 -56q46 -18 76 -41 q36 -28 47 -49q18 -24 24 -55q8 -27 8 -68q0 -129 -75 -186q-74 -59 -207 -59q-138 0 -197 59t-59 174zM1651 1098v135h516v-135h-176v-676h-164v676h-176zM2279 827q0 91 9 170q9 78 36 133q32 59 84 87q52 30 146 30q92 0 147 -30q55 -31 82 -87q30 -55 39 -133 q8 -106 8 -170q0 -68 -8 -170q-9 -78 -39 -133q-26 -54 -82 -86q-58 -28 -147 -28q-92 0 -146 28q-53 29 -84 86q-27 55 -36 133q-9 77 -9 170zM2441 827q0 -61 4 -139q6 -61 17 -92q12 -36 35 -53q24 -17 57 -17q35 0 59 17q21 15 33 53q13 38 16 92q4 78 4 139 q0 64 -4 138q-3 52 -16 94q-11 34 -33 53q-22 16 -59 16q-35 0 -57 -16q-25 -21 -35 -53q-11 -34 -17 -94q-4 -74 -4 -138zM2984 422v811h287q56 0 104 -23q43 -21 70 -55q27 -38 37 -76q10 -39 10 -90q0 -59 -19 -108q-20 -52 -51 -76q-36 -31 -82 -45q-46 -15 -104 -15 h-88v-323h-164zM3148 866h71q51 0 80 29q31 31 31 92q0 58 -27 92q-26 33 -88 33h-67v-246z" />
<glyph unicode="z" horiz-adv-x="4300" d="M614 307h1024v-1024h-1024v1024zM614 1331v1024h1024v-1024h-1024zM2662 307h1024v-1024h-1024v1024zM2662 1331v1024h1024v-1024h-1024z" />
<glyph unicode="&#xc4;" />
<glyph unicode="&#xc5;" d="M614 440v758q274 0 535.5 -72.5t483 -202.5t408 -316t316.5 -407.5t202.5 -483t72.5 -535.5h-758q0 256 -100 489.5t-268.5 402t-402 268t-489.5 99.5zM614 -440q0 -157 111 -268t268 -111t267 111t110 268t-110 267t-267 110t-268 -110t-111 -267zM614 1702v756 q335 0 660 -67t616 -190.5t556 -302.5t485.5 -399.5t399.5 -485.5t302.5 -556t190.5 -616t67 -660h-756q0 343 -90.5 670t-253 603.5t-395 509t-509 395t-603.5 253t-670 90.5z" />
<glyph unicode="&#xe4;" horiz-adv-x="2662" />
<glyph unicode="&#xe5;" d="M614 -102h3277v-615h-3277v615zM614 512v614h3277v-614h-3277zM614 1741v614h3277v-614h-3277z" />
<glyph unicode="&#xf6;" horiz-adv-x="3766" />
<glyph unicode="&#x2000;" horiz-adv-x="1638" />
<glyph unicode="&#x2001;" horiz-adv-x="3277" />
<glyph unicode="&#x2002;" horiz-adv-x="1638" />
<glyph unicode="&#x2003;" horiz-adv-x="3277" />
<glyph unicode="&#x2004;" horiz-adv-x="1092" />
<glyph unicode="&#x2005;" horiz-adv-x="819" />
<glyph unicode="&#x2006;" horiz-adv-x="546" />
<glyph unicode="&#x2007;" horiz-adv-x="546" />
<glyph unicode="&#x2008;" horiz-adv-x="409" />
<glyph unicode="&#x2009;" horiz-adv-x="655" />
<glyph unicode="&#x200a;" horiz-adv-x="182" />
<glyph unicode="&#x202f;" horiz-adv-x="655" />
<glyph unicode="&#x205f;" horiz-adv-x="819" />
<glyph unicode="&#xe000;" horiz-adv-x="2048" d="M0 0v2048h2048v-2048h-2048z" />
</font>
</defs>
</svg>
